<svg width="86" height="27" fill="none" xmlns="http://www.w3.org/2000/svg"><path d="M6.537 16.167c-.2-.2-.465-.3-.8-.3-.34 0-.61.1-.81.3-.2.2-.306.505-.32.916-.006.178-.009.434-.009.769 0 .341.003.604.01.788.013.411.119.717.318.917.2.2.47.299.81.299.336 0 .601-.1.801-.3.2-.2.305-.503.319-.916.013-.367.02-.629.02-.788 0-.158-.007-.414-.02-.769-.014-.41-.12-.716-.319-.916zm7.344-7.953c.15-.136.226-.336.226-.603 0-.247-.069-.447-.207-.598-.14-.15-.352-.227-.64-.227h-1.08v1.633h1.08c.263 0 .47-.068.621-.205zm7.376-.066c.145-.137.216-.325.216-.566 0-.24-.072-.434-.216-.578-.145-.147-.355-.218-.632-.218h-1.07v1.566h1.07c.276 0 .487-.068.632-.204zM6.588 7.133c-.21-.193-.515-.289-.92-.289h-.915v3.796h.964c.404 0 .703-.094.896-.284.193-.19.296-.494.309-.912.013-.183.02-.42.02-.712 0-.29-.007-.524-.02-.702-.013-.404-.124-.703-.334-.897z" fill="#fff"/><path d="M0 .35v26h26.406v-26H0zm17.742 5.316c0-.07.023-.128.067-.175a.228.228 0 01.174-.072h2.65c.849 0 1.512.19 1.99.569.48.38.718.915.718 1.604 0 .443-.104.819-.313 1.13-.21.31-.497.55-.863.72l1.302 2.316c.02.038.03.073.03.104 0 .05-.02.096-.058.138a.192.192 0 01-.145.062h-1.36a.401.401 0 01-.395-.257l-1.061-2.06h-.926v2.078c0 .07-.025.127-.072.17a.255.255 0 01-.179.067h-1.32a.217.217 0 01-.167-.068.226.226 0 01-.072-.166v-6.16zm-7.404 0c0-.07.023-.128.068-.175a.228.228 0 01.173-.072h2.728c.835 0 1.49.187 1.967.56.476.375.713.922.713 1.644 0 .721-.237 1.26-.713 1.618-.475.358-1.13.536-1.967.536h-1.1v2.051a.235.235 0 01-.067.166.229.229 0 01-.173.071h-1.388a.241.241 0 01-.168-.073.226.226 0 01-.073-.166v-6.16zM8.726 18.697c-.033.848-.31 1.49-.834 1.927-.523.437-1.243.655-2.154.655-.914 0-1.633-.218-2.16-.655-.526-.437-.807-1.079-.838-1.927-.007-.177-.01-.448-.01-.816 0-.367.003-.642.01-.825.026-.835.307-1.479.843-1.932.536-.452 1.254-.68 2.154-.68.893 0 1.607.226 2.145.68.537.451.817 1.097.844 1.932.013.367.02.642.02.825 0 .19-.007.462-.02.816zm.036-9.233c-.064 1.734-1.065 2.6-2.999 2.6H3.182a.233.233 0 01-.168-.072.226.226 0 01-.073-.166v-6.16c0-.07.023-.128.068-.175a.228.228 0 01.173-.072h2.535c.95 0 1.69.223 2.216.67.527.446.804 1.087.829 1.922.007.184.01.427.01.731s-.003.545-.01.722zm7.585 11.328a.21.21 0 01-.07.162.241.241 0 01-.17.063h-1.161a.22.22 0 01-.16-.068.214.214 0 01-.07-.157V17.51l-.988 1.784c-.08.138-.187.208-.32.208h-.494c-.122 0-.23-.068-.32-.208l-.979-1.784v3.28a.21.21 0 01-.069.163.241.241 0 01-.17.063h-1.153a.258.258 0 01-.172-.063.21.21 0 01-.07-.162v-5.85c0-.067.024-.122.07-.168a.232.232 0 01.17-.068h1.035c.152 0 .262.067.33.198l1.574 2.776 1.583-2.776a.344.344 0 01.33-.198h1.035a.235.235 0 01.24.236v5.85zm7.262-2.095c-.033.848-.31 1.49-.834 1.927-.523.437-1.242.655-2.153.655-.915 0-1.634-.218-2.16-.655-.527-.437-.808-1.079-.84-1.927a24.15 24.15 0 01-.009-.816c0-.367.003-.642.01-.825.026-.835.307-1.479.843-1.932.537-.452 1.255-.68 2.154-.68.893 0 1.607.226 2.145.68.537.451.817 1.097.844 1.932.013.367.02.642.02.825 0 .19-.007.462-.02.816z" fill="#fff"/><path d="M21.42 16.167c-.2-.2-.465-.3-.8-.3-.34 0-.61.1-.81.3-.2.2-.306.505-.319.916-.006.178-.01.434-.01.769 0 .341.003.604.01.788.013.411.119.717.319.917.2.2.468.299.81.299.333 0 .6-.1.8-.3.2-.2.306-.503.319-.916.013-.367.02-.629.02-.788 0-.158-.007-.414-.02-.769-.013-.41-.119-.716-.319-.916zm9.064-4.843a.187.187 0 01-.06-.138V6.084c0-.057.019-.106.057-.147a.192.192 0 01.144-.058h2.259c.691 0 1.234.154 1.629.463.394.309.59.762.59 1.36 0 .598-.196 1.045-.59 1.34-.395.297-.938.444-1.629.444h-.911v1.698a.195.195 0 01-.2.197h-1.15a.184.184 0 01-.139-.057zm2.36-2.96c.218 0 .39-.057.515-.17.126-.112.188-.279.188-.498a.712.712 0 00-.171-.496c-.114-.125-.292-.188-.532-.188h-.894v1.352h.894zm2.575 2.968a.155.155 0 01-.051-.113.26.26 0 01.008-.072l1.86-5.04a.31.31 0 01.32-.228h1.246c.16 0 .266.076.32.227l1.86 5.041a.247.247 0 01.009.072c0 .042-.019.08-.051.113a.16.16 0 01-.116.05h-1.038a.276.276 0 01-.27-.171l-.288-.763h-2.093l-.287.762a.277.277 0 01-.272.173h-1.038a.161.161 0 01-.119-.05zm2.048-2.063h1.421l-.711-2.006-.71 2.006zm4.951 1.972c-.346-.146-.604-.334-.774-.565-.17-.23-.269-.48-.295-.748v-.016a.13.13 0 01.051-.105.174.174 0 01.116-.044h1.086c.064 0 .113.011.151.035a.357.357 0 01.104.106c.122.257.401.385.839.385.277 0 .495-.05.655-.15a.47.47 0 00.24-.423.482.482 0 00-.22-.43c-.147-.097-.355-.146-.628-.146h-.59a.19.19 0 01-.14-.063.21.21 0 01-.06-.15V8.26c0-.057.02-.108.06-.15a.185.185 0 01.14-.063h.574c.223 0 .4-.044.527-.13.127-.086.19-.221.19-.405a.464.464 0 00-.195-.39c-.13-.097-.314-.146-.547-.146a1.21 1.21 0 00-.54.102.473.473 0 00-.258.291.294.294 0 01-.088.102.244.244 0 01-.135.031H41.57a.192.192 0 01-.127-.047.128.128 0 01-.048-.118c.048-.43.26-.795.635-1.094.375-.3.944-.449 1.705-.449.447 0 .84.072 1.179.213.338.142.599.333.782.574.183.24.276.504.276.786 0 .226-.047.438-.14.634a1.092 1.092 0 01-.484.484c.277.137.478.32.602.551.125.231.188.478.188.74 0 .334-.099.63-.295.884-.197.253-.477.45-.839.59-.361.138-.787.208-1.277.208-.526.004-.962-.07-1.309-.217zm4.636.083a.187.187 0 01-.06-.138V6.084c0-.057.019-.106.057-.147a.192.192 0 01.143-.058h2.26c.691 0 1.234.154 1.629.463.394.309.59.762.59 1.36 0 .598-.196 1.045-.59 1.34-.395.297-.938.444-1.63.444h-.91v1.698a.195.195 0 01-.2.197h-1.15a.186.186 0 01-.139-.057zm2.36-2.96c.218 0 .39-.057.515-.17.126-.112.188-.279.188-.498a.712.712 0 00-.171-.496c-.114-.125-.292-.188-.532-.188h-.894v1.352h.894zm2.576 2.968a.155.155 0 01-.05-.113.26.26 0 01.008-.072l1.86-5.04c.052-.153.16-.228.32-.228h1.246c.16 0 .265.076.32.227l1.86 5.041a.251.251 0 01.008.072c0 .042-.018.08-.051.113a.16.16 0 01-.116.05h-1.038a.276.276 0 01-.27-.171l-.287-.763h-2.096l-.288.762a.277.277 0 01-.272.173h-1.038a.157.157 0 01-.116-.05zm2.05-2.062h1.42l-.71-2.006-.71 2.006zm4.187 2.054a.187.187 0 01-.06-.138V6.084c0-.057.02-.106.057-.147a.192.192 0 01.144-.058h3.865a.21.21 0 01.148.058c.04.04.06.088.06.147v.825a.203.203 0 01-.208.203H59.67v.875h1.07c.643 0 1.151.149 1.524.448.373.299.56.709.56 1.227 0 .33-.081.625-.245.884-.161.26-.4.463-.714.613-.314.149-.69.224-1.126.224h-2.371a.19.19 0 01-.14-.059zm2.375-1.002c.208 0 .37-.064.487-.194a.68.68 0 00.175-.476.642.642 0 00-.172-.456c-.114-.12-.279-.18-.491-.18h-.934v1.304l.935.002zm3.356.598c-.438-.363-.669-.894-.695-1.596a21.684 21.684 0 01-.009-.676c0-.304.004-.531.009-.684.021-.692.254-1.225.698-1.6.444-.376 1.04-.563 1.785-.563.74 0 1.332.187 1.778.562.444.376.677.909.698 1.6.01.305.017.532.017.685 0 .158-.005.383-.017.676-.026.702-.257 1.235-.691 1.596-.434.362-1.03.542-1.785.542-.757 0-1.353-.182-1.788-.542zm2.45-.886c.165-.166.253-.418.264-.759.01-.304.017-.521.017-.653s-.005-.343-.017-.637c-.01-.341-.099-.593-.264-.759-.165-.166-.386-.247-.663-.247-.282 0-.507.083-.672.247-.165.166-.252.418-.264.759-.005.146-.008.359-.008.637 0 .283.003.5.008.653.01.341.1.593.264.759.165.166.388.247.672.247.277.002.498-.081.663-.247zm4.021 1.294a.186.186 0 01-.06-.142V7.161h-1.406a.203.203 0 01-.147-.055.186.186 0 01-.06-.142v-.88a.202.202 0 01.207-.205H73.3c.058 0 .108.02.149.058.04.04.06.088.06.147v.88c0 .059-.02.106-.06.142a.207.207 0 01-.149.055h-1.406v4.027a.18.18 0 01-.06.141.208.208 0 01-.148.055h-1.11a.217.217 0 01-.147-.056zm8.709-.126a.17.17 0 01-.053.13.17.17 0 01-.124.05h-1.26c-.128 0-.222-.051-.28-.157l-1.19-1.966h-.52v1.927c0 .059-.02.106-.059.142a.208.208 0 01-.148.055h-1.095a.19.19 0 01-.2-.197V6.084c0-.057.019-.106.057-.147a.192.192 0 01.143-.058h1.095c.059 0 .107.02.148.058.04.04.06.088.06.147v1.864h.447l1.15-1.911a.343.343 0 01.304-.158h1.221a.162.162 0 01.168.166c0 .037-.01.068-.03.094l-1.478 2.39 1.62 2.587a.145.145 0 01.024.086zm.292.13a.155.155 0 01-.051-.113.26.26 0 01.008-.072l1.86-5.04a.31.31 0 01.32-.228h1.246c.16 0 .266.076.32.227l1.86 5.041a.251.251 0 01.009.072c0 .042-.019.08-.052.113a.16.16 0 01-.115.05h-1.038a.276.276 0 01-.27-.171l-.288-.763h-2.093l-.287.762a.277.277 0 01-.272.173h-1.038a.161.161 0 01-.12-.05zm2.048-2.063h1.421l-.71-2.006-.711 2.006zM30.48 20.764a.19.19 0 01-.057-.142V15.52c0-.057.018-.106.056-.146a.192.192 0 01.144-.059h4.48c.058 0 .108.02.15.059a.2.2 0 01.059.146v5.102c0 .059-.02.106-.06.142a.207.207 0 01-.148.055h-1.086a.21.21 0 01-.149-.055.186.186 0 01-.06-.142v-3.994h-1.884v3.994c0 .059-.02.106-.06.142a.207.207 0 01-.148.055h-1.094a.196.196 0 01-.144-.055zm5.977-.004a.187.187 0 01-.06-.138V15.52c0-.057.019-.106.057-.146a.192.192 0 01.143-.059h2.26c.691 0 1.234.155 1.629.463.394.31.59.763.59 1.36 0 .599-.196 1.045-.59 1.341-.395.296-.938.444-1.63.444h-.91v1.698a.195.195 0 01-.2.197h-1.15a.186.186 0 01-.139-.057zm2.36-2.96c.218 0 .39-.057.515-.17.126-.111.188-.279.188-.498a.712.712 0 00-.172-.496c-.113-.125-.292-.188-.53-.188h-.895V17.8h.894zm3.53 2.555c-.437-.363-.668-.894-.694-1.596a21.295 21.295 0 01-.009-.676c0-.304.004-.532.009-.684.02-.693.254-1.226.698-1.601.444-.375 1.04-.562 1.785-.562.74 0 1.332.187 1.778.562.444.375.676.908.698 1.6.01.305.016.532.016.685 0 .157-.005.383-.016.676-.026.702-.258 1.235-.692 1.596-.434.362-1.03.542-1.784.542-.756 0-1.353-.18-1.789-.542zm2.451-.884c.165-.166.253-.418.264-.76.01-.303.017-.521.017-.653 0-.131-.005-.343-.017-.637-.01-.34-.099-.593-.264-.758-.165-.166-.386-.247-.663-.247-.283 0-.507.082-.672.247-.165.165-.253.417-.264.758-.005.147-.008.36-.008.637 0 .283.003.5.008.654.01.34.099.593.264.759.165.165.388.247.672.247.277.001.498-.082.663-.247zm2.791 1.289a.186.186 0 01-.06-.138V15.52c0-.057.019-.106.057-.146a.192.192 0 01.143-.059h3.77a.204.204 0 01.208.205v.778c0 .059-.02.106-.06.142a.208.208 0 01-.148.055h-2.524v1h2.349a.203.203 0 01.208.204v.715a.203.203 0 01-.208.205h-2.349v1.022h2.588c.058 0 .107.02.149.059a.19.19 0 01.059.144v.778c0 .059-.02.106-.06.142a.207.207 0 01-.148.055H47.73a.198.198 0 01-.14-.058zm9.995-.121a.176.176 0 01-.177.18h-1.26a.295.295 0 01-.28-.157l-1.19-1.967h-.52v1.927c0 .059-.02.106-.059.142a.207.207 0 01-.148.055h-1.095a.19.19 0 01-.2-.197V15.52c0-.057.019-.106.057-.146a.192.192 0 01.143-.059h1.095c.059 0 .107.02.148.059.04.039.06.088.06.146v1.864h.447l1.15-1.911a.343.343 0 01.304-.158h1.221a.162.162 0 01.168.166c0 .037-.01.068-.031.094l-1.477 2.39 1.62 2.588a.14.14 0 01.024.086zm2.008.125a.186.186 0 01-.06-.141v-4.027h-1.405a.203.203 0 01-.147-.055.186.186 0 01-.06-.142v-.88a.202.202 0 01.207-.205h4.337a.21.21 0 01.148.058c.04.04.06.088.06.146v.881c0 .059-.02.106-.06.142a.207.207 0 01-.148.055h-1.406v4.027a.18.18 0 01-.06.141.208.208 0 01-.148.055h-1.11a.206.206 0 01-.148-.055zm3.355.005a.155.155 0 01-.05-.114.27.27 0 01.008-.072l1.858-5.04a.31.31 0 01.32-.228h1.246c.16 0 .266.077.32.228l1.86 5.04a.252.252 0 01.008.072c0 .042-.016.08-.05.114a.16.16 0 01-.116.05h-1.038a.276.276 0 01-.27-.172l-.288-.762h-2.093l-.287.762a.277.277 0 01-.272.172h-1.038a.158.158 0 01-.117-.05zm2.049-2.066h1.42l-.71-2.005-.71 2.005z" fill="#fff"/></svg>