<svg width="185" height="35" fill="none" xmlns="http://www.w3.org/2000/svg"><path d="M60.494 12.983c-.988-1.129-2.328-1.693-4.022-1.693h-9.384l-4.94 3.034h7.41c.776 0 1.41.282 1.904.847.494.564.706 1.27.565 2.046l-3.316 17.005h9.596l3.316-17.217c.283-1.552-.07-2.893-1.129-4.022zm-36.55 21.168H5.245c-1.693 0-3.034-.564-4.093-1.693C.165 31.33-.188 30.06.094 28.507l2.187-11.36c.283-1.553 1.2-2.894 2.682-4.164 1.552-1.2 3.175-1.764 4.868-1.764h18.487l-.564 3.034h-12.49c-.705 0-1.41.283-2.116.777-.706.564-1.13 1.2-1.27 1.905L9.69 28.295c-.14.776.07 1.411.565 1.976.494.564 1.129.846 1.905.846h12.348l-.564 3.034zm64.139 0H69.385c-1.694 0-3.034-.564-4.093-1.693-.988-1.129-1.34-2.399-1.058-3.951l2.187-11.36c.282-1.553 1.2-2.964 2.681-4.164 1.553-1.2 3.176-1.764 4.87-1.764h18.486l-.564 3.034h-12.56c-.706 0-1.412.283-2.117.777-.706.564-1.129 1.2-1.27 1.905l-2.117 11.36c-.141.776.07 1.411.564 1.976.494.564 1.13.846 1.906.846h12.348l-.565 3.034zm25.332 0H98.033c-1.694 0-3.034-.564-4.093-1.693-.988-1.129-1.34-2.399-1.058-3.951l2.187-11.36c.282-1.553 1.2-2.964 2.681-4.164 1.553-1.2 3.176-1.764 4.869-1.764h15.382c1.623 0 2.964.565 4.022 1.694 1.059 1.129 1.412 2.47 1.129 4.022l-2.187 11.36c-.282 1.552-1.2 2.963-2.752 4.093-1.552 1.199-3.105 1.764-4.798 1.764zm-5.433-19.898c-.706 0-1.412.283-2.117.777-.706.564-1.129 1.2-1.27 1.905l-2.188 11.36c-.141.776.071 1.411.565 1.976.494.564 1.129.846 1.905.846h3.105c.705 0 1.411-.282 2.117-.776.705-.494 1.129-1.129 1.27-1.834l2.187-11.29c.141-.706 0-1.411-.564-2.046-.494-.565-1.129-.847-1.906-.847h-3.104v-.07zm70.561 19.898h-18.699c-1.694 0-3.034-.564-4.093-1.693-.987-1.129-1.34-2.399-1.058-3.951l2.187-11.36c.283-1.553 1.2-2.894 2.682-4.164 1.552-1.2 3.175-1.764 4.868-1.764H182l-.564 3.034h-11.643c-.706 0-1.411.283-2.117.777-.705.564-1.129 1.2-1.27 1.905l-.706 3.598-.141.565h12.348l-.564 3.104h-12.278l-.07.353-.706 3.67c-.141.776.071 1.41.565 1.975.494.565 1.129.847 1.905.847h12.348l-.564 3.104zm-33.94-22.861h-16.229l-.918 4.304h10.937l6.21-4.304zm4.375 0l-18.699 13.124c-2.752 1.694-4.304 3.528-4.728 5.645l-.846 4.092h25.049l.846-4.304h-13.688c-.212 0-.353-.212-.353-.353v-.07c0-.212 0-.424.564-.847l10.514-7.409c3.457-2.328 4.234-3.387 4.798-5.292l.917-4.586h-4.374z" fill="#fff"/><path d="M33.187 11.29l-4.516 22.86h9.597l4.516-22.861h-9.597zM38.338 0c-1.552 0-3.105 1.27-3.457 2.822l-.424 2.188c-.282 1.552.776 2.822 2.329 2.822h3.81c1.623 0 3.105-1.27 3.458-2.822l.423-2.188C44.759 1.27 43.7 0 42.148 0h-3.81z" fill="#fff"/></svg>