<svg width="18" height="16" fill="none" xmlns="http://www.w3.org/2000/svg"><path d="M17.843 3.189a.748.748 0 00-.582-.276H3.187l-.21-2.26A.73.73 0 002.241 0H.74A.728.728 0 000 .717c0 .396.331.717.74.717h.825l.81 8.755v.03a.7.7 0 00.011.081l.03.32a2.74 2.74 0 001.064 1.87c-.299.37-.477.833-.477 1.337C3.004 15.025 4.009 16 5.245 16s2.241-.975 2.241-2.174c0-.26-.047-.508-.133-.74h4.046c-.087.232-.134.48-.134.74 0 1.199 1.005 2.174 2.24 2.174 1.237 0 2.242-.975 2.242-2.174 0-1.198-1.005-2.173-2.241-2.173H5.25c-.561 0-1.05-.329-1.262-.807l11.814-.674a.734.734 0 00.674-.542l1.502-5.826a.7.7 0 00-.135-.615z" fill="#000"/></svg>