<svg width="18" height="15" fill="none" xmlns="http://www.w3.org/2000/svg"><path d="M16.418.494H1.582c-.243 0-.471.06-.678.158l8.06 8.06 1.807-1.735L17.097.651a1.564 1.564 0 00-.678-.158zm1.424.904L11.89 7.35l5.951 5.951c.1-.206.159-.434.159-.677V2.076c0-.244-.06-.472-.158-.678zm-17.683 0A1.564 1.564 0 000 2.076v10.547c0 .243.06.471.158.677L6.11 7.35.159 1.397z" fill="#F2F2F2"/><path d="M11.145 8.095L9.338 9.83a.526.526 0 01-.746 0L6.855 8.095l-5.951 5.95c.206.1.434.16.678.16h14.836c.244 0 .472-.06.678-.159l-5.951-5.951z" fill="#F2F2F2"/></svg>